<svg xmlns="http://www.w3.org/2000/svg" xmlns:xlink="http://www.w3.org/1999/xlink" width="200" height="200" class="icon" p-id="787" t="1616398663420" version="1.1" viewBox="0 0 1024 1024"><defs><style type="text/css"/></defs><path d="M637.6 381.7L495.8 493.1c-4.1 3.1-9.8 3.6-13.9 1l-154.7-84.6c-4.6-2.6-10.8-2.1-14.4 1.5L162.2 547.2v153.1l150-133.5c3.6-3.6 9.8-4.1 14.4-1.5l177.9 96.4c4.1 2.1 9.3 2.1 12.9-0.5l144.4-91.3c1-0.5 2.6-1.5 3.6-1.5l294.4-72.7V301.8l-317.6 77.3c-1.5 0.5-3.1 1.6-4.6 2.6z" p-id="788"/><path d="M662.3 622.2l-142.8 91.3c-3.6 2.6-8.8 2.6-12.9 0.5l-179.9-96.4c-4.6-2.6-10.8-2.1-14.4 1.5 0 0-150.5 133.5-150.5 136.6v111.4h797.6V545.9l-293.9 74.8-3.2 1.5z" p-id="789"/><path d="M64 144.2c0-1.3 0.5-2.6 1.5-3.6s2.3-1.5 3.6-1.5H101c1.3 0 2.6 0.5 3.6 1.5s1.5 2.3 1.5 3.6v778.9H955c1.3 0 2.6 0.5 3.6 1.5s1.5 2.3 1.5 3.6v31.9c0 1.3-0.5 2.6-1.5 3.6s-2.3 1.5-3.6 1.5H64v-821z" p-id="790"/></svg>