<svg xmlns="http://www.w3.org/2000/svg" xmlns:xlink="http://www.w3.org/1999/xlink" width="200" height="200" class="icon" p-id="4612" t="1626064715257" version="1.1" viewBox="0 0 1024 1024"><defs><style type="text/css"/></defs><path fill="#0a7be0" d="M1019.204 901.632L546.628 82.944c-15.36-26.112-52.736-26.112-68.096 0L5.444 901.632c-15.36 26.112 3.584 58.88 34.304 58.88H984.9c30.208 0 49.152-32.768 34.304-58.88z" class="selected" data-spm-anchor-id="a313x.7781069.0.i1" p-id="4613"/><path fill="#FFF" d="M462.148 353.792h0.512a46.98 46.98 0 0 1 47.104-47.104h5.632a46.98 46.98 0 0 1 47.104 47.104v254.464c0 26.112-21.504 47.616-48.128 47.104h-4.608c-26.112 0-47.616-20.992-47.616-47.104V353.792z m107.52 421.888c-5.12 26.112-20.48 41.984-46.592 47.616-6.144 1.536-12.288 1.536-18.432 0-27.136-5.632-43.52-20.992-49.152-46.592-1.536-6.656-1.536-13.312 0-19.456 5.632-25.6 22.016-40.96 49.152-46.08a55.68 55.68 0 0 1 18.432 0c26.112 5.632 41.472 20.992 46.592 47.104 1.024 5.632 1.024 11.776 0 17.408z" p-id="4614"/></svg>