<svg xmlns="http://www.w3.org/2000/svg" xmlns:xlink="http://www.w3.org/1999/xlink" id="图层_1" x="0" y="0" preserveAspectRatio="none meet" version="1.1" viewBox="0 0 454.2 286.6" xml:space="preserve" style="enable-background:new 0 0 454.2 286.6"><style type="text/css">.st0{fill:#0b101e}.st1{opacity:.1;fill:#006ce2}.st2{fill:none;stroke:#31ecff;stroke-width:.6677;stroke-miterlimit:10}.st3,.st4{fill:#31ecff}.st4{opacity:.75}.st5,.st6,.st7{opacity:.5;fill:#31ecff}.st6,.st7{opacity:.25}.st7{fill:#006ce2}</style><rect width="1920" height="1080" x="2743.8" y="-1694.6" class="st0"/><g><polygon points="63 -472.9 -388.8 -472.9 -388.8 -756.4 -353.3 -756.4 -312.8 -712.4 63 -712.4" class="st1"/><polygon points="-345.9 -756.4 -309 -717 63 -717 63 -756.4" class="st1"/><polygon points="63 -472.9 -388.8 -472.9 -388.8 -756.4 -353.3 -756.4 -312.8 -712.4 63 -712.4" class="st2"/><polygon points="-345.9 -756.4 -309 -717 63 -717 63 -756.4" class="st2"/><g><rect width="12" height="2.4" x="52.2" y="-474.1" class="st3"/><rect width="12" height="2.4" x="57" y="-478.9" class="st3" transform="matrix(-1.836970e-16 1 -1 -1.836970e-16 -414.7073 -540.6516)"/></g><g><rect width="12" height="2.4" x="-394.8" y="-478.9" class="st3" transform="matrix(-1.836970e-16 1 -1 -1.836970e-16 -866.4924 -88.8664)"/><rect width="12" height="2.4" x="-390" y="-474.1" class="st3" transform="matrix(-1 -1.224647e-16 1.224647e-16 -1 -768.0378 -945.7705)"/></g><g><rect width="12" height="2.4" x="56.6" y="-752.7" class="st3" transform="matrix(6.123234e-17 -1 1 6.123234e-17 814.0578 -688.874)"/><rect width="12" height="2.4" x="51.8" y="-757.4" class="st3"/></g><g><rect width="12" height="2.4" x="-389.7" y="-757.4" class="st3" transform="matrix(-1 -1.224647e-16 1.224647e-16 -1 -767.3794 -1512.5201)"/><rect width="12" height="2.4" x="-394.5" y="-752.7" class="st3" transform="matrix(6.123234e-17 -1 1 6.123234e-17 362.9821 -1139.9497)"/></g></g><g><polygon points="84.6 -1179.5 -367.2 -1179.5 -367.2 -1447.9 -352.5 -1463 84.6 -1463" class="st1"/><polygon points="84.6 -1179.5 -367.2 -1179.5 -367.2 -1447.9 -352.5 -1463 84.6 -1463" class="st2"/><polyline points="-367.2 -1419 63.9 -1419 84.6 -1434.2" class="st2"/><polygon points="20 -1421.6 12 -1421.6 24.3 -1431.5 32.3 -1431.5" class="st3"/><polygon points="34.1 -1421.6 26.1 -1421.6 38.4 -1431.5 46.4 -1431.5" class="st4"/><polygon points="48.2 -1421.6 40.2 -1421.6 52.5 -1431.5 60.5 -1431.5" class="st5"/><polygon points="62.3 -1421.6 54.3 -1421.6 66.6 -1431.5 74.6 -1431.5" class="st6"/><polygon points="-367.5 -1450.9 -367.5 -1463 -355.9 -1463" class="st3"/></g><g><polygon points="15.6 -844.6 -436.1 -844.6 -436.1 -1128.1 -110.9 -1128.1 -88.4 -1111 15.6 -1111" class="st1"/><polygon points="15.6 -844.6 -436.1 -844.6 -436.1 -1128.1 -110.9 -1128.1 -88.4 -1111 15.6 -1111" class="st2"/><g><rect width="12" height="2.4" x="4.9" y="-845.7" class="st3"/><rect width="12" height="2.4" x="9.7" y="-850.5" class="st3" transform="matrix(-1.836970e-16 1 -1 -1.836970e-16 -833.7073 -864.9849)"/></g><g><rect width="12" height="2.4" x="-442.1" y="-850.5" class="st3" transform="matrix(-1.836970e-16 1 -1 -1.836970e-16 -1285.4924 -413.1997)"/><rect width="12" height="2.4" x="-437.3" y="-845.7" class="st3" transform="matrix(-1 -1.224647e-16 1.224647e-16 -1 -862.7045 -1689.1039)"/></g><g><rect width="12" height="2.4" x="-437" y="-1129.1" class="st3" transform="matrix(-1 -1.224647e-16 1.224647e-16 -1 -862.0461 -2255.8535)"/><rect width="12" height="2.4" x="-441.8" y="-1124.3" class="st3" transform="matrix(6.123234e-17 -1 1 6.123234e-17 687.3154 -1558.9497)"/></g><polygon points="-54.9 -1114.3 -76.3 -1114.3 -89.6 -1124.2 -68.2 -1124.2" class="st3"/><polygon points="-28.8 -1114.3 -47.5 -1114.3 -60.8 -1124.2 -42.1 -1124.2" class="st4"/><polygon points="-5.4 -1114.3 -21.4 -1114.3 -34.7 -1124.2 -18.7 -1124.2" class="st5"/><polygon points="15.4 -1114.3 2 -1114.3 -11.2 -1124.2 15.4 -1124.2" class="st6"/><rect width="451.8" height="1.8" x="-436.1" y="-1081.9" class="st3"/></g><g><polygon points="2182.7 -1069.2 1731 -1069.2 1731 -1337.6 1745.7 -1352.8 2182.7 -1352.8" class="st1"/><polygon points="2182.7 -1069.2 1731 -1069.2 1731 -1337.6 1745.7 -1352.8 2182.7 -1352.8" class="st2"/><polyline points="1731 -1308.7 2162.1 -1308.7 2182.7 -1323.9" class="st2"/><polygon points="2118.2 -1311.3 2110.2 -1311.3 2122.5 -1321.3 2130.5 -1321.3" class="st3"/><polygon points="2132.3 -1311.3 2124.3 -1311.3 2136.6 -1321.3 2144.6 -1321.3" class="st4"/><polygon points="2146.4 -1311.3 2138.4 -1311.3 2150.7 -1321.3 2158.7 -1321.3" class="st5"/><polygon points="2160.5 -1311.3 2152.4 -1311.3 2164.8 -1321.3 2172.8 -1321.3" class="st6"/><polygon points="1730.7 -1340.6 1730.7 -1352.8 1742.3 -1352.8" class="st3"/></g><g><polygon points="2182.6 -750.6 1730.8 -750.6 1730.8 -1034.2 2056 -1034.2 2078.6 -1017.1 2182.6 -1017.1" class="st1"/><polygon points="2182.6 -750.6 1730.8 -750.6 1730.8 -1034.2 2056 -1034.2 2078.6 -1017.1 2182.6 -1017.1" class="st2"/><g><rect width="12" height="2.4" x="2171.8" y="-751.8" class="st3"/><rect width="12" height="2.4" x="2176.6" y="-756.6" class="st3" transform="matrix(-1.836970e-16 1 -1 -1.836970e-16 1427.1624 -2938.0291)"/></g><g><rect width="12" height="2.4" x="1724.8" y="-756.6" class="st3" transform="matrix(-1.836970e-16 1 -1 -1.836970e-16 975.3772 -2486.2439)"/><rect width="12" height="2.4" x="1729.6" y="-751.8" class="st3" transform="matrix(-1 -1.224647e-16 1.224647e-16 -1 3471.2095 -1501.2784)"/></g><g><rect width="12" height="2.4" x="1730" y="-1035.2" class="st3" transform="matrix(-1 -1.224647e-16 1.224647e-16 -1 3471.8679 -2068.0281)"/><rect width="12" height="2.4" x="1725.2" y="-1030.4" class="st3" transform="matrix(6.123234e-17 -1 1 6.123234e-17 2760.3596 701.9199)"/></g><polygon points="2112 -1020.3 2090.6 -1020.3 2077.4 -1030.3 2098.7 -1030.3" class="st3"/><polygon points="2138.1 -1020.3 2119.4 -1020.3 2106.2 -1030.3 2124.9 -1030.3" class="st4"/><polygon points="2161.6 -1020.3 2145.5 -1020.3 2132.3 -1030.3 2148.3 -1030.3" class="st5"/><polygon points="2182.3 -1020.3 2169 -1020.3 2155.7 -1030.3 2182.3 -1030.3" class="st6"/><rect width="451.8" height="1.8" x="1730.8" y="-988" class="st3"/></g><g><polygon points="1682.5 -750.7 850.3 -750.7 850.3 -1034.3 1555.9 -1034.3 1578.5 -1017.2 1682.5 -1017.2" class="st1"/><polygon points="1682.5 -750.7 850.3 -750.7 850.3 -1034.3 1555.9 -1034.3 1578.5 -1017.2 1682.5 -1017.2" class="st2"/><g><rect width="12" height="2.4" x="1671.7" y="-751.9" class="st3"/><rect width="12" height="2.4" x="1676.5" y="-756.7" class="st3" transform="matrix(-1.836970e-16 1 -1 -1.836970e-16 926.9837 -2438.0081)"/></g><g><rect width="12" height="2.4" x="844.3" y="-756.7" class="st3" transform="matrix(-1.836970e-16 1 -1 -1.836970e-16 94.7936 -1605.818)"/><rect width="12" height="2.4" x="849.1" y="-751.9" class="st3" transform="matrix(-1 -1.224647e-16 1.224647e-16 -1 1710.2 -1501.436)"/></g><g><rect width="12" height="2.4" x="849.4" y="-1035.3" class="st3" transform="matrix(-1 -1.224647e-16 1.224647e-16 -1 1710.8583 -2068.1858)"/><rect width="12" height="2.4" x="844.7" y="-1030.5" class="st3" transform="matrix(6.123234e-17 -1 1 6.123234e-17 1879.9337 -178.6637)"/></g><polygon points="1611.9 -1020.4 1590.5 -1020.4 1577.3 -1030.4 1598.6 -1030.4" class="st3"/><polygon points="1638 -1020.4 1619.3 -1020.4 1606.1 -1030.4 1624.8 -1030.4" class="st4"/><polygon points="1661.5 -1020.4 1645.4 -1020.4 1632.2 -1030.4 1648.2 -1030.4" class="st5"/><polygon points="1682.2 -1020.4 1668.9 -1020.4 1655.6 -1030.4 1682.2 -1030.4" class="st6"/><rect width="832.3" height="1.8" x="850.2" y="-988.1" class="st3"/></g><g><polygon points="444.4 285.1 2.4 285.1 2.4 11.8 12.1 1.6 454.2 1.6 454.2 275" class="st1"/><polygon points="414.3 3.2 194.9 3.2 191.7 0 417.3 0" class="st3"/><polyline points="454.2 50 454.2 1.6 418.8 1.6 415.3 5.3 193.8 5.3 190.3 1.6 12.4 1.6 2.4 11.9 2.4 18.5" class="st2"/><rect width="263.9" height="3.2" x="25.5" y="283.4" class="st3" transform="matrix(-1 -1.224647e-16 1.224647e-16 -1 314.9124 570.0419)"/><polyline points="2.4 249.9 2.4 285 444.2 285 454.2 274.7 454.2 268.2" class="st2"/><polygon points="454.2 50 454.2 1.6 418.8 1.6 415.3 5.3 193.8 5.3 190.2 1.6 12.1 1.6 2.4 11.8 2.4 50" class="st7"/></g></svg>