<svg xmlns="http://www.w3.org/2000/svg" xmlns:xlink="http://www.w3.org/1999/xlink" id="图层_1" x="0" y="0" preserveAspectRatio="none meet" version="1.1" viewBox="0 0 480 300" xml:space="preserve" style="enable-background:new 0 0 480 300"><style type="text/css">.st0{fill:#1094e5}</style><g><path d="M476.5,296.5H3.5V3.5h473V296.5z M4.5,295.5h471V4.5H4.5V295.5z" class="st0"/></g><g><polygon points="5.5 13.8 2.5 13.8 2.5 2.5 13.8 2.5 13.8 5.5 5.5 5.5" class="st0"/></g><g><polygon points="13.8 297.5 2.5 297.5 2.5 286.2 5.5 286.2 5.5 294.5 13.8 294.5" class="st0"/></g><g><polygon points="477.5 297.5 466.2 297.5 466.2 294.5 474.5 294.5 474.5 286.2 477.5 286.2" class="st0"/></g><g><polygon points="477.5 13.8 474.5 13.8 474.5 5.5 466.2 5.5 466.2 2.5 477.5 2.5" class="st0"/></g></svg>