<svg xmlns="http://www.w3.org/2000/svg" xmlns:xlink="http://www.w3.org/1999/xlink" id="图层_1" x="0" y="0" preserveAspectRatio="none meet" version="1.1" viewBox="0 0 480 300" xml:space="preserve" style="enable-background:new 0 0 480 300"><style type="text/css">.st0{fill:#1094e5}.st1{opacity:.65}</style><g><polygon points="9 35.7 7 35.7 7 6.2 201.7 6.2 201.7 8.2 9 8.2" class="st0"/></g><g><g><polygon points="13 45.4 7 50.1 7 4.9 64.5 4.9 59 10.9 13 10.9" class="st0"/></g></g><g><polygon points="407.5 288 6.5 288 6.5 165.3 13.3 159.9 13.3 119.3 10 115.9 10 45.6 12 45.6 12 115 15.3 118.5 15.3 160.9 8.5 166.3 8.5 286 407 286 422 278.8 422.9 280.6" class="st0"/></g><g><g><polygon points="471.6 288.2 411.2 288.2 426.1 281.2 464.6 281.2 464.6 239.4 471.6 229.4" class="st0"/></g></g><g class="st1"><polygon points="464.4 236.7 462.8 235.6 469.8 225.9 469.8 177.6 465.3 175.1 465.3 57.1 469.8 54.6 469.8 7.1 214.1 7.1 207.4 13.8 150.6 13.8 150.6 11.8 206.6 11.8 213.3 5.1 471.8 5.1 471.8 55.8 467.3 58.3 467.3 174 471.8 176.5 471.8 226.5" class="st0"/></g><g><rect width="2" height="111" x="469.8" y="61.3" class="st0"/></g><g class="st1"><rect width="2" height="38.8" x="8.5" y="120.3" class="st0"/></g></svg>