<svg xmlns="http://www.w3.org/2000/svg" xmlns:xlink="http://www.w3.org/1999/xlink" id="图层_1" x="0" y="0" preserveAspectRatio="none meet" version="1.1" viewBox="0 0 480 300" xml:space="preserve" style="enable-background:new 0 0 480 300"><style type="text/css">.st0{fill:#1094e5}.st1{opacity:.25}.st2{fill-rule:evenodd;clip-rule:evenodd;fill:#1094e5}.st3{opacity:.45}.st4{opacity:.6}.st5{opacity:.75}</style><g><g><g><path d="M467.7,298.5H2.5V25l12.1-13h101l9.8-10h353.1v282.9L467.7,298.5z M3.5,297.5h463.7l10.3-13V3H125.8L116,13 h-101L3.5,25.4V297.5z" class="st0"/></g></g></g><g class="st1"><polygon points="71.4 1 62.4 10 70.4 10 79.4 1" class="st2"/></g><g class="st3"><polygon points="82.4 1 73.4 10 81.4 10 90.4 1" class="st2"/></g><g class="st4"><polygon points="93.4 1 84.4 10 92.4 10 101.4 1" class="st2"/></g><g class="st5"><polygon points="104.4 1 95.4 10 103.4 10 112.4 1" class="st2"/></g><g><polygon points="115.4 1 106.4 10 114.4 10 123.4 1" class="st2"/></g><g><polygon points="4.4 37.2 1.4 37.2 1.4 24.6 14 10.9 41.2 10.9 41.2 13.9 15.3 13.9 4.4 25.8" class="st0"/></g><g><polygon points="20.8 299.5 1.3 299.5 1.3 282.8 4.3 282.8 4.3 296.5 20.8 296.5" class="st0"/></g><g><polygon points="468.1 299.3 446.2 299.3 446.2 296.3 466.7 296.3 476.5 284 476.5 268.8 479.5 268.8 479.5 285" class="st0"/></g><g><polygon points="479.5 15.2 476.5 15.2 476.5 3.6 464.2 3.6 464.2 .6 479.5 .6" class="st0"/></g></svg>