<svg xmlns="http://www.w3.org/2000/svg" xmlns:xlink="http://www.w3.org/1999/xlink" id="图层_1" x="0" y="0" preserveAspectRatio="none meet" version="1.1" viewBox="0 0 480 300" xml:space="preserve" style="enable-background:new 0 0 480 300"><style type="text/css">.st0{fill:#1094e5}.st1{opacity:.75}.st2{opacity:.5}.st3{opacity:.25}</style><g><g><path d="M480.9,299.5H0.6V0.9h353l0.3,0.2l22.2,16.8h104.8V299.5z M2.3,297.8h476.9V19.6H375.6L353,2.6H2.3V297.8z" class="st0"/></g></g><g><g><rect width="14.7" height="2.9" x="466.9" y="297.1" class="st0"/></g><g><rect width="14.7" height="2.9" x="472.8" y="291.2" class="st0" transform="matrix(-1.836970e-16 1 -1 -1.836970e-16 772.8039 -187.5366)"/></g></g><g><g><rect width="14.7" height="2.9" x="-5.9" y="291.3" class="st0" transform="matrix(-1.836970e-16 1 -1 -1.836970e-16 294.2621 291.3384)"/></g><g><rect width="14.7" height="2.9" y="297.1" class="st0" transform="matrix(-1 -1.224647e-16 1.224647e-16 -1 14.7328 597.0763)"/></g></g><g><g><rect width="14.7" height="2.9" x="0" y=".1" class="st0" transform="matrix(-1 -1.224647e-16 1.224647e-16 -1 14.7328 3.2131)"/></g><g><rect width="14.7" height="2.9" x="-5.9" y="6" class="st0" transform="matrix(6.123234e-17 -1 1 6.123234e-17 -6.0492 8.9729)"/></g></g><g><polygon points="409.2 15.9 387.8 15.9 374.5 5.9 395.9 5.9" class="st0"/></g><g class="st1"><polygon points="435.3 15.9 416.6 15.9 403.3 5.9 422 5.9" class="st0"/></g><g class="st2"><polygon points="458.7 15.9 442.7 15.9 429.4 5.9 445.5 5.9" class="st0"/></g><g class="st3"><polygon points="479.5 15.9 466.1 15.9 452.9 5.9 479.5 5.9" class="st0"/></g></svg>