<svg xmlns="http://www.w3.org/2000/svg" xmlns:xlink="http://www.w3.org/1999/xlink" id="图层_1" x="0" y="0" preserveAspectRatio="none meet" version="1.1" viewBox="0 0 480 300" xml:space="preserve" style="enable-background:new 0 0 480 300"><style type="text/css">.st0{fill:#15709e}</style><g><path d="M465.1,295.8H14.9L4.3,285.1V197l6.1-3.7v-86.5L4.3,103V14.9L14.9,4.3h450.1l10.7,10.7v87.7l-6.8,4.1v86.5 l6.8,4.1v87.7L465.1,295.8z M15.5,294.3h448.9l9.8-9.8v-86.2l-6.8-4.1v-88.2l6.8-4.1V15.6l-9.8-9.8H15.6l-9.8,9.8v86.6l6.1,3.7 v88.2l-6.1,3.7v86.7L15.5,294.3z" class="st0"/></g><g><polygon points="2.3 104.2 2.3 195.8 9.1 191.7 9.1 108.3" class="st0"/><polygon points="477 195.8 477 104.2 470.2 108.3 470.2 191.7" class="st0"/></g><polygon points="475.7 13.5 466.7 4.5 475.7 4.5" class="st0"/><polygon points="466.7 295.7 475.7 286.7 475.7 295.7" class="st0"/><polygon points="4.3 286.7 13.3 295.7 4.3 295.7" class="st0"/><polygon points="13.3 4.5 4.3 13.5 4.3 4.5" class="st0"/></svg>